<svg xmlns="http://www.w3.org/2000/svg" xmlns:xlink="http://www.w3.org/1999/xlink" width="1080" zoomAndPan="magnify" viewBox="0 0 810 809.999993" height="1080" preserveAspectRatio="xMidYMid meet" version="1.0"><defs><clipPath id="8d28930a58"><path d="M 141 113 L 668.902344 113 L 668.902344 697 L 141 697 Z M 141 113 " clip-rule="nonzero"/></clipPath></defs><rect x="-81" width="972" fill="#ffffff" y="-80.999999" height="971.999992" fill-opacity="1"/><rect x="-81" width="972" fill="#6366ee" y="-80.999999" height="971.999992" fill-opacity="1"/><g clip-path="url(#8d28930a58)"><path fill="#ffffff" d="M 465.253906 467.996094 L 469.164062 467.960938 C 499.253906 467.625 532.550781 492.636719 533.035156 517.777344 C 533.515625 542.625 501.46875 567.597656 482.792969 567.792969 C 482.792969 567.792969 443.816406 568.359375 434.125 568.835938 C 432.121094 568.9375 430.121094 569.007812 428.128906 569.023438 L 319.101562 570.21875 C 303.570312 570.378906 290.796875 582.589844 290.320312 597.609375 C 289.828125 613.09375 303.109375 625.636719 319.058594 625.472656 L 391.640625 624.722656 C 396.113281 624.675781 399.695312 628.152344 399.65625 632.496094 C 399.652344 632.5625 399.652344 632.632812 399.652344 632.703125 C 399.621094 637.402344 395.644531 641.257812 390.804688 641.308594 L 357.808594 641.648438 C 342.28125 641.808594 329.503906 654.015625 329.023438 669.035156 C 328.53125 684.523438 341.8125 697.0625 357.765625 696.898438 L 498.65625 695.449219 C 500.84375 695.429688 502.976562 695.160156 505.027344 694.683594 C 551.472656 691.0625 590.984375 673.597656 619.996094 643.691406 C 650.949219 611.777344 667.644531 568.195312 668.265625 517.667969 L 668.277344 516.804688 C 668.90625 466.175781 653.179688 422.527344 622.785156 390.589844 C 590.875 357.050781 545.652344 339.609375 492.011719 340.164062 L 468.695312 340.402344 C 466.707031 340.421875 464.730469 340.542969 462.78125 340.730469 L 335.90625 341.898438 C 330.1875 341.753906 326.214844 341.660156 326.214844 341.660156 C 307.542969 341.300781 275.722656 316.039062 276.425781 291.195312 C 277.132812 266.058594 310.652344 241.351562 340.742188 241.953125 L 366.695312 242.457031 C 367.722656 242.476562 368.746094 242.46875 369.757812 242.4375 C 372.144531 242.375 374.539062 242.324219 376.945312 242.367188 L 456.132812 243.808594 L 483.871094 244.339844 L 522.570312 245.089844 C 538.515625 245.398438 551.914062 232.980469 551.554688 217.488281 C 551.214844 202.46875 538.546875 190.136719 523.023438 189.84375 L 483.683594 189.082031 L 470.402344 188.824219 C 465.886719 188.734375 462.222656 185.109375 462.210938 180.726562 L 462.210938 180.507812 C 462.199219 175.855469 466.070312 172.164062 470.867188 172.253906 L 498.109375 172.78125 C 514.058594 173.089844 527.453125 160.667969 527.101562 145.179688 C 526.757812 130.15625 514.097656 117.832031 498.5625 117.527344 L 348.269531 114.792969 C 346.320312 114.585938 344.351562 114.445312 342.355469 114.410156 L 319.046875 113.957031 C 265.410156 112.917969 220.035156 129.949219 187.820312 163.203125 C 157.144531 194.863281 141.019531 238.371094 141.191406 289.003906 L 141.195312 289.867188 C 141.367188 340.394531 157.667969 384.125 188.328125 416.3125 C 209.53125 438.574219 236.519531 454.078125 267.84375 462.320312 M 246.917969 570.960938 L 225.542969 571.179688 C 209.828125 571.34375 196.9375 583.847656 196.75 599.105469 C 196.5625 614.367188 209.140625 626.605469 224.855469 626.441406 L 246.230469 626.222656 C 261.945312 626.058594 274.835938 613.554688 275.023438 598.296875 C 275.214844 583.035156 262.628906 570.796875 246.917969 570.960938 Z M 538.589844 145.933594 C 538.542969 130.671875 551.238281 118.546875 566.949219 118.855469 L 588.320312 119.261719 C 604.03125 119.5625 616.808594 132.1875 616.859375 147.445312 C 616.910156 162.703125 604.214844 174.832031 588.5 174.53125 L 567.136719 174.113281 C 551.429688 173.8125 538.648438 161.195312 538.589844 145.933594 " fill-opacity="1" fill-rule="nonzero"/></g></svg>